<svg xmlns="http://www.w3.org/2000/svg" version="1.1" xmlns:xlink="http://www.w3.org/1999/xlink" width="1000" height="1000"><style>
    #light-icon {
      display: inline;
    }
    #dark-icon {
      display: none;
    }

    @media (prefers-color-scheme: dark) {
      #light-icon {
        display: none;
      }
      #dark-icon {
        display: inline;
      }
    }
  </style><g id="light-icon"><svg xmlns="http://www.w3.org/2000/svg" version="1.1" xmlns:xlink="http://www.w3.org/1999/xlink" width="1000" height="1000"><g><g transform="matrix(10,0,0,10,0,0)"><svg xmlns="http://www.w3.org/2000/svg" version="1.1" xmlns:xlink="http://www.w3.org/1999/xlink" width="100" height="100"><svg width="100" height="100" viewBox="0 0 24 24" fill="#3d50f5" xmlns="http://www.w3.org/2000/svg">
    <rect x="3" y="3" width="7" height="7" rx="2"></rect>
    <rect x="14" y="3" width="7" height="7" rx="2"></rect>
    <rect x="3" y="14" width="7" height="7" rx="2"></rect>
    <rect x="14" y="14" width="7" height="7" rx="2"></rect>
</svg></svg></g></g></svg></g><g id="dark-icon"><svg xmlns="http://www.w3.org/2000/svg" version="1.1" xmlns:xlink="http://www.w3.org/1999/xlink" width="1000" height="1000"><g><g transform="matrix(10,0,0,10,0,0)"><svg xmlns="http://www.w3.org/2000/svg" version="1.1" xmlns:xlink="http://www.w3.org/1999/xlink" width="100" height="100"><svg width="100" height="100" viewBox="0 0 24 24" fill="#B3C7FF" xmlns="http://www.w3.org/2000/svg">
    <rect x="3" y="3" width="7" height="7" rx="2"></rect>
    <rect x="14" y="3" width="7" height="7" rx="2"></rect>
    <rect x="3" y="14" width="7" height="7" rx="2"></rect>
    <rect x="14" y="14" width="7" height="7" rx="2"></rect>
</svg></svg></g></g></svg></g></svg>